<?xml version="1.0" encoding="iso-8859-1"?>
<!-- Generator: Adobe Illustrator 19.0.0, SVG Export Plug-In . SVG Version: 6.00 Build 0)  -->
<svg version="1.1" id="Capa_1" xmlns="http://www.w3.org/2000/svg" xmlns:xlink="http://www.w3.org/1999/xlink" x="0px" y="0px"
	 viewBox="0 0 512 512" style="enable-background:new 0 0 512 512;" xml:space="preserve">
<path style="fill:#FF8C00;" d="M414.5,7.5h-30v497h30c49.5,0,90-40.5,90-90v-317C504.5,48,464,7.5,414.5,7.5z"/>
<path style="fill:#FF8C00;" d="M474.5,97.5v317c0,49.5-40.5,90-90,90h-287c-49.5,0-90-40.5-90-90v-317c0-49.5,40.5-90,90-90h287
	C434,7.5,474.5,48,474.5,97.5z"/>
<path style="fill:#FFFFFF;" d="M256,67.5c-46.456,0-84.25,37.794-84.25,84.25V424.5c0,11.046,8.954,20,20,20s20-8.954,20-20V276
	h88.5v148.5c0,11.046,8.954,20,20,20s20-8.954,20-20V151.75C340.25,105.294,302.456,67.5,256,67.5z M211.75,236v-84.25
	c0-24.399,19.851-44.25,44.25-44.25s44.25,19.851,44.25,44.25V236H211.75z"/>
<path d="M414.5,0h-317C43.738,0,0,43.738,0,97.5v317C0,468.262,43.738,512,97.5,512h317c53.762,0,97.5-43.738,97.5-97.5v-317
	C512,43.738,468.262,0,414.5,0z M497,414.5c0,45.49-37.01,82.5-82.5,82.5h-317C52.009,497,15,459.99,15,414.5v-317
	C15,52.01,52.009,15,97.5,15h317c45.49,0,82.5,37.01,82.5,82.5V414.5z"/>
<path d="M211.75,243.5h88.5c4.143,0,7.5-3.357,7.5-7.5v-84.25c0-28.535-23.215-51.75-51.75-51.75s-51.75,23.215-51.75,51.75V236
	C204.25,240.143,207.608,243.5,211.75,243.5z M219.25,151.75c0-20.264,16.486-36.75,36.75-36.75s36.75,16.486,36.75,36.75v76.75
	h-73.5V151.75z"/>
<path d="M256,60c-50.591,0-91.75,41.159-91.75,91.75V424.5c0,15.163,12.336,27.5,27.5,27.5s27.5-12.337,27.5-27.5v-59.25
	c0-4.143-3.358-7.5-7.5-7.5s-7.5,3.357-7.5,7.5v59.25c0,6.893-5.607,12.5-12.5,12.5s-12.5-5.607-12.5-12.5V151.75
	C179.25,109.43,213.68,75,256,75s76.75,34.43,76.75,76.75V424.5c0,6.893-5.607,12.5-12.5,12.5s-12.5-5.607-12.5-12.5V276
	c0-4.143-3.357-7.5-7.5-7.5h-88.5c-4.142,0-7.5,3.357-7.5,7.5v59.25c0,4.143,3.358,7.5,7.5,7.5s7.5-3.357,7.5-7.5V283.5h73.5v141
	c0,15.163,12.337,27.5,27.5,27.5s27.5-12.337,27.5-27.5V151.75C347.75,101.159,306.592,60,256,60z"/>
<g>
</g>
<g>
</g>
<g>
</g>
<g>
</g>
<g>
</g>
<g>
</g>
<g>
</g>
<g>
</g>
<g>
</g>
<g>
</g>
<g>
</g>
<g>
</g>
<g>
</g>
<g>
</g>
<g>
</g>
</svg>
